<svg width="5678" height="1772" viewBox="0 0 5678 1772" fill="none" xmlns="http://www.w3.org/2000/svg">
<path d="M1252.13 1139.06H1087.19V1308.18H1252.13V1139.06Z" fill="#632D91"/>
<path d="M1460.36 1139.06H1295.42V1308.18H1460.36V1139.06Z" fill="#632D91"/>
<path d="M1252.13 1352.24H1087.19V1521.36H1252.13V1352.24Z" fill="#632D91"/>
<path d="M1460.36 1352.24H1295.42V1521.36H1460.36V1352.24Z" fill="#632D91"/>
<path d="M1910.36 773.18L955.18 0L0 774.35L85.65 879.06L177.43 804.62L170.18 814.24V1771.06H1742.36V810.79L1826.27 879.06L1910.36 773.18ZM1636.12 1660.06L685.09 1660.35L1016.44 927.33L845.53 847.06L414.77 1660.43L275.77 1660.47V724.85L957.26 172.08L1636.13 724.37V1660.06H1636.12Z" fill="#632D91"/>
<path d="M864.95 805.06L1039.3 886.94C1039.3 886.94 1064.73 842.57 1091.54 819.53C1118.36 796.47 1161.63 789.48 1195.54 805.06C1227.14 819.57 1240.55 852.06 1234.66 886.91C1233.11 896.06 1237.66 905.15 1246.03 909.15L1331.97 950.21C1348.69 958.2 1368.7 950.87 1376.31 933.97C1387.65 908.77 1404.45 872.4 1420.49 841.42C1436.3 810.88 1452.87 778.96 1464.21 757.13C1472.05 742.03 1466.28 723.44 1451.27 715.43L1368.36 671.2C1363 668.34 1356.53 668.5 1351.35 671.67C1345.85 675.03 1337.26 679.14 1325.31 681.65C1302.37 686.47 1269.19 673.06 1249.9 647.77C1233.99 626.91 1233.66 603.89 1233.66 593.65C1233.66 593.65 1163.19 533.65 1033.31 496.94C903.43 460.23 772.6 479.35 672.96 548.23C604.71 595.42 569.29 648.88 554.68 675.42C549.4 685.01 551.17 696.95 558.97 704.63C566.85 712.39 578.95 713.91 588.49 708.32C616.46 691.92 676.9 659.41 734.02 647.99C811.67 632.46 865.12 655.1 877.67 702.7C891.43 754.94 864.96 805.05 864.96 805.05L864.95 805.06Z" fill="#632D91"/>
<path d="M2667.56 725.508V1146.85C2667.56 1236.73 2610.68 1273.89 2540.52 1273.89C2470.35 1273.89 2413.48 1238.23 2413.48 1146.85V1102.94H2500.4V1148.48C2500.4 1168.14 2516.33 1184.07 2535.99 1184.07C2555.65 1184.07 2571.59 1168.14 2571.59 1148.48V725.508H2667.58H2667.56Z" fill="#632D91"/>
<path d="M2735.22 725.508V1264.44H2898.11C2968.87 1264.44 3026.22 1207.07 3026.22 1136.32V853.63C3026.22 782.871 2968.86 725.519 2898.11 725.519H2735.22V725.508ZM2888.54 1175.75H2831.22V814.192H2888.54C2911.57 814.192 2930.23 832.867 2930.23 855.89V1134.05C2930.23 1157.09 2911.56 1175.75 2888.54 1175.75Z" fill="#632D91"/>
<path d="M4675.54 725.508H4579.54V1264.44H4675.54V725.508Z" fill="#632D91"/>
<path d="M5034.56 866.545V904.837H4938.57V856.961C4938.57 828.049 4915.13 804.62 4886.23 804.62C4857.32 804.62 4833.89 828.06 4833.89 856.961V1131.72C4833.89 1160.63 4857.33 1184.06 4886.23 1184.06C4915.14 1184.06 4938.57 1160.62 4938.57 1131.72V1086.55H5034.56V1122.14C5034.56 1227.4 4968.15 1270.48 4886.22 1270.48C4804.29 1270.48 4737.88 1227.4 4737.88 1122.14V866.534C4737.88 768.705 4804.29 718.194 4886.22 718.194C4968.15 718.194 5034.56 768.705 5034.56 866.534V866.545Z" fill="#632D91"/>
<path d="M2391.68 866.545V904.837H2295.69V856.961C2295.69 828.049 2272.25 804.62 2243.35 804.62C2214.44 804.62 2191.01 828.06 2191.01 856.961V1131.72C2191.01 1160.63 2214.45 1184.06 2243.35 1184.06C2272.26 1184.06 2295.69 1160.62 2295.69 1131.72V1086.55H2391.68V1122.14C2391.68 1227.4 2325.27 1270.48 2243.34 1270.48C2161.41 1270.48 2095 1227.4 2095 1122.14V866.534C2095 768.705 2161.41 718.194 2243.34 718.194C2325.27 718.194 2391.68 768.705 2391.68 866.534V866.545Z" fill="#632D91"/>
<path d="M4111.78 1077.74L4098.09 1035.23C4104.35 1033.4 4156.25 1006.69 4156.25 936.147V844.186C4156.25 778.641 4103.12 725.508 4037.57 725.508H3869.84V1264.44H3965.83V1050.91H4005.07L4066.8 1264.44H4171.87L4111.78 1077.74ZM3965.83 964.492V811.933H4012.89C4039.05 811.933 4060.25 833.135 4060.25 859.295V923.983C4060.25 946.352 4042.12 964.481 4019.75 964.481H3965.83V964.492Z" fill="#632D91"/>
<path d="M5352.28 1178.02V1264.44H5097.3V725.508H5348.24V811.933H5193.3V948.108H5314.24V1034.53H5193.3V1178.02H5352.28Z" fill="#632D91"/>
<path d="M3653.6 1178.02V1036.55H3772.27V950.132H3653.6V815.21H3805.53V725.508H3653.6H3605.61H3557.6V1264.45H3603.34H3653.6H3808.56V1178.02H3653.6Z" fill="#632D91"/>
<path d="M4293.07 725.508H4189.32L4304.15 1264.45H4417.59L4530.4 725.508H4432.65L4364.96 1135.8L4293.07 725.508Z" fill="#632D91"/>
<path d="M5580.72 874.414H5675.21C5675.21 874.414 5675.71 815.959 5659.08 782.956C5642.45 749.954 5603.45 710.248 5521.26 716.694C5442.58 722.862 5405.17 765.577 5397.54 825.285C5390.37 881.492 5400.32 937.153 5439.87 976.463C5463.74 1000.83 5499.08 1025.41 5531.2 1053.19C5563.33 1080.96 5579.39 1098.73 5580.9 1133.3C5582.41 1167.88 5562.57 1186.03 5529.88 1184.14C5497.18 1182.24 5475.64 1162.02 5478.85 1106.1H5387.2V1148.99C5387.2 1177.9 5402.69 1239.31 5466.57 1261.99C5530.44 1284.67 5632.11 1275.28 5662.59 1202.73C5693.08 1130.17 5676.95 1050.54 5623.54 1004.43C5570.13 958.323 5522.29 925.781 5504.74 899.182C5489.25 875.689 5489.38 846.712 5492.77 834.655C5498.38 814.716 5519.86 800.357 5545.95 805.647C5572.03 810.936 5583.55 833.231 5580.72 874.436V874.414Z" fill="#632D91"/>
<path d="M3402.36 874.414H3496.84C3496.84 874.414 3497.35 815.959 3480.72 782.956C3464.09 749.954 3425.09 710.248 3342.89 716.694C3264.22 722.862 3226.81 765.577 3219.18 825.285C3212.01 881.492 3221.96 937.153 3261.51 976.463C3285.38 1000.83 3320.72 1025.41 3352.84 1053.19C3384.97 1080.96 3401.03 1098.73 3402.54 1133.3C3404.05 1167.88 3384.2 1186.03 3351.51 1184.14C3318.82 1182.24 3297.28 1162.02 3300.49 1106.1H3208.84V1148.99C3208.84 1177.9 3224.33 1239.31 3288.21 1261.99C3352.08 1284.67 3453.74 1275.28 3484.23 1202.73C3514.72 1130.17 3498.59 1050.54 3445.18 1004.43C3391.76 958.323 3343.93 925.781 3326.38 899.182C3310.89 875.689 3311.01 846.712 3314.41 834.655C3320.02 814.716 3341.5 800.357 3367.59 805.647C3393.67 810.936 3405.19 833.231 3402.36 874.436V874.414Z" fill="#632D91"/>
<path d="M2207.05 1461.91C2195.98 1444.25 2176.16 1440.47 2165.18 1439.8H2110.5V1601.18H2140.72V1547.64H2160.31C2169.94 1547.04 2182.2 1545.15 2191.18 1539.76C2198.52 1535.37 2204.37 1528.55 2208.45 1520.49C2216.32 1505.02 2217.68 1484.94 2210.52 1468.52C2209.53 1466.24 2208.38 1464.04 2207.05 1461.91ZM2182.3 1506.88C2177.08 1518.61 2165.59 1520.3 2161.01 1520.49C2159.78 1520.54 2159.06 1520.49 2159.06 1520.49H2140.72V1468.52H2158.11C2184.19 1468.52 2188.8 1492.29 2182.3 1506.88Z" fill="#632D91"/>
<path d="M2279.18 1439.8L2221.99 1601.18H2251.47L2264.11 1563.51H2322.14L2334.86 1601.18H2365.1L2309.42 1439.8H2279.18ZM2272.57 1538.32L2293.04 1477.35L2313.63 1538.32H2272.56H2272.57Z" fill="#632D91"/>
<path d="M4528.89 1439.8L4471.7 1601.18H4501.18L4513.82 1563.51H4571.85L4584.57 1601.18H4614.81L4559.13 1439.8H4528.89ZM4522.28 1538.32L4542.75 1477.35L4563.34 1538.32H4522.27H4522.28Z" fill="#632D91"/>
<path d="M5364.69 1439.8L5307.5 1601.18H5336.98L5349.63 1563.51H5407.65L5420.37 1601.18H5450.61L5394.93 1439.8H5364.69ZM5358.09 1538.32L5378.55 1477.35L5399.14 1538.32H5358.07H5358.09Z" fill="#632D91"/>
<path d="M2419.26 1439.8H2392.56V1601.18H2419.26V1439.8Z" fill="#632D91"/>
<path d="M2560.11 1543.13L2494.85 1441.46L2493.81 1439.82H2467.14V1601.21H2494.85V1493.84L2560.11 1592.45L2565.9 1601.21H2587.82V1439.82H2560.11V1543.13Z" fill="#632D91"/>
<path d="M2919.91 1543.13L2854.66 1441.46L2853.62 1439.82H2826.94V1601.21H2854.66V1493.84L2919.91 1592.45L2925.7 1601.21H2947.62V1439.82H2919.91V1543.13Z" fill="#632D91"/>
<path d="M2617.31 1468.91H2658.12V1601.18H2685.33V1468.91H2724.26V1439.8H2617.31V1468.91Z" fill="#632D91"/>
<path d="M2782.4 1439.8H2754.56V1601.18H2782.4V1439.8Z" fill="#632D91"/>
<path d="M3056.46 1508.85V1535.24H3087.64C3088.59 1554.52 3074.73 1577.26 3047.57 1573.79C3019.41 1570.19 3007.33 1538.83 3010.54 1509.35C3013.76 1479.87 3034.33 1463.94 3054.95 1465.64C3077.44 1467.5 3089.53 1491.6 3089.53 1491.6L3112.21 1472.5C3112.21 1472.5 3091.23 1439.53 3054.95 1437.74C3019.22 1435.97 2988.18 1461.61 2981.44 1499.91C2975.13 1535.77 2984.16 1589.63 3030 1600.84C3074.79 1611.8 3105.28 1585.54 3113.02 1555.99C3118.57 1534.83 3117.96 1516.68 3117.71 1508.85H3056.46Z" fill="#632D91"/>
<path d="M3713.43 1461.91C3702.35 1444.25 3682.53 1440.47 3671.56 1439.8H3616.87V1601.18H3647.1V1547.64H3666.68C3676.31 1547.04 3688.57 1545.15 3697.56 1539.76C3704.89 1535.37 3710.75 1528.55 3714.83 1520.49C3722.7 1505.02 3724.06 1484.94 3716.89 1468.52C3715.91 1466.24 3714.75 1464.04 3713.43 1461.91ZM3688.68 1506.88C3683.45 1518.61 3671.96 1520.3 3667.38 1520.49C3666.16 1520.54 3665.43 1520.49 3665.43 1520.49H3647.1V1468.52H3664.49C3690.56 1468.52 3695.18 1492.29 3688.68 1506.88Z" fill="#632D91"/>
<path d="M3787.39 1439.8L3730.19 1601.18H3759.67L3772.32 1563.51H3830.35L3843.07 1601.18H3873.31L3817.63 1439.8H3787.39ZM3780.78 1538.32L3801.24 1477.35L3821.83 1538.32H3780.77H3780.78Z" fill="#632D91"/>
<path d="M3510.69 1533.28H3570.27V1505.44H3510.69V1467.64H3574.62V1439.8H3510.69H3491.28H3482.85V1601.18H3491.28H3510.69H3576.5V1573.34H3510.69V1533.28Z" fill="#632D91"/>
<path d="M3434.39 1517.4C3440.88 1505.06 3443.57 1484.94 3436.41 1468.52C3435.42 1466.24 3434.52 1464.37 3432.88 1462C3421.01 1444.87 3399.14 1440.47 3388.17 1439.8H3337.65V1601.18H3367.87V1542.41H3387.46C3389.13 1542.3 3390.81 1542.16 3392.51 1541.97L3418.15 1601.17H3451.78L3419.46 1533.7C3424.51 1530.34 3430.87 1524.11 3434.39 1517.39V1517.4ZM3409.45 1501.28C3404.73 1513.23 3392.74 1514.7 3388.16 1514.89C3386.94 1514.94 3386.21 1514.89 3386.21 1514.89H3367.87V1468.52H3385.26C3411.34 1468.52 3413.23 1491.72 3409.45 1501.28Z" fill="#632D91"/>
<path d="M4075 1517.4C4081.49 1505.06 4084.17 1484.94 4077.01 1468.52C4076.02 1466.24 4075.12 1464.37 4073.49 1462C4061.61 1444.87 4039.74 1440.47 4028.77 1439.8H3978.25V1601.18H4008.48V1542.41H4028.06C4029.73 1542.3 4031.41 1542.16 4033.12 1541.97L4058.75 1601.17H4092.39L4060.06 1533.7C4065.11 1530.34 4071.47 1524.11 4075 1517.39V1517.4ZM4050.06 1501.28C4045.33 1513.23 4033.34 1514.7 4028.76 1514.89C4027.54 1514.94 4026.81 1514.89 4026.81 1514.89H4008.48V1468.52H4025.87C4051.94 1468.52 4053.84 1491.72 4050.06 1501.28Z" fill="#632D91"/>
<path d="M3930.75 1439.8H3903.03V1601.18H3930.75V1439.8Z" fill="#632D91"/>
<path d="M4410.22 1508.21H4344.97V1439.8H4317.25V1601.18H4344.97V1534.03H4410.22V1601.18H4437.94V1439.8H4410.22V1508.21Z" fill="#632D91"/>
<path d="M4739.02 1541.53L4676.66 1442.7L4674.83 1439.8H4647.93V1601.18H4676.66V1497.52L4739.02 1592.53L4744.69 1601.18H4767.75V1439.8H4739.02V1541.53Z" fill="#632D91"/>
<path d="M5571.23 1439.8V1541.53L5508.88 1442.7L5507.05 1439.8H5480.15V1601.18H5508.88V1497.52L5571.23 1592.53L5576.91 1601.18H5599.96V1439.8H5571.23Z" fill="#632D91"/>
<path d="M4194.29 1545.26C4205.36 1545.26 4214.33 1536.29 4214.33 1525.22C4214.33 1514.16 4205.36 1505.19 4194.29 1505.19C4183.23 1505.19 4174.26 1514.16 4174.26 1525.22C4174.26 1536.29 4183.23 1545.26 4194.29 1545.26Z" fill="#632D91"/>
<path d="M3236.65 1539.39C3244.48 1531.57 3244.47 1518.88 3236.65 1511.06C3228.83 1503.23 3216.14 1503.23 3208.32 1511.06C3200.49 1518.88 3200.49 1531.57 3208.32 1539.39C3216.14 1547.21 3228.83 1547.21 3236.65 1539.39Z" fill="#632D91"/>
<path d="M4860.9 1439.8H4809.31V1601.18H4860.9C4912.87 1601.18 4941.59 1565.06 4941.59 1520.5C4941.59 1475.93 4909.34 1439.8 4860.9 1439.8ZM4897.15 1558.49C4888.3 1567.98 4875.2 1573.85 4858.2 1573.85H4837.03V1469.02H4858.2C4891.2 1469.02 4910.6 1492.5 4910.6 1521.43C4910.6 1535.91 4906.01 1549 4897.15 1558.49Z" fill="#632D91"/>
<path d="M5022.35 1504.31L4984.93 1439.8H4949.15L5008.49 1532.63V1601.18H5036.21V1532.63L5095.54 1439.8H5059.77L5022.35 1504.31Z" fill="#632D91"/>
<path d="M5250.24 1439.8H5244.51L5200.86 1538.07L5156.64 1439.8H5150.97H5123.26V1601.18H5150.97V1491.54L5193.17 1584.83H5208.14L5250.24 1486.98V1601.18H5277.96V1439.8H5262.46H5250.24Z" fill="#632D91"/>
</svg>
