<svg width="1911" height="1772" viewBox="0 0 1911 1772" fill="none" xmlns="http://www.w3.org/2000/svg">
<path d="M1252.71 1139.06H1087.77V1308.18H1252.71V1139.06Z" fill="#632D91"/>
<path d="M1460.94 1139.06H1296V1308.18H1460.94V1139.06Z" fill="#632D91"/>
<path d="M1252.71 1352.24H1087.77V1521.36H1252.71V1352.24Z" fill="#632D91"/>
<path d="M1460.94 1352.24H1296V1521.36H1460.94V1352.24Z" fill="#632D91"/>
<path d="M1910.94 773.18L955.76 0L0.580078 774.35L86.2301 879.06L178.01 804.62L170.76 814.24V1771.06H1742.94V810.79L1826.85 879.06L1910.94 773.18ZM1636.7 1660.06L685.67 1660.35L1017.02 927.33L846.11 847.06L415.35 1660.43L276.35 1660.47V724.85L957.84 172.08L1636.71 724.37V1660.06H1636.7Z" fill="#632D91"/>
<path d="M865.53 805.06L1039.88 886.94C1039.88 886.94 1065.31 842.57 1092.12 819.53C1118.94 796.47 1162.21 789.48 1196.12 805.06C1227.72 819.57 1241.13 852.06 1235.24 886.91C1233.69 896.06 1238.24 905.15 1246.61 909.15L1332.55 950.21C1349.27 958.2 1369.28 950.87 1376.89 933.97C1388.23 908.77 1405.03 872.4 1421.07 841.42C1436.88 810.88 1453.45 778.96 1464.79 757.13C1472.63 742.03 1466.86 723.44 1451.85 715.43L1368.94 671.2C1363.58 668.34 1357.11 668.5 1351.93 671.67C1346.43 675.03 1337.84 679.14 1325.89 681.65C1302.95 686.47 1269.77 673.06 1250.48 647.77C1234.57 626.91 1234.24 603.89 1234.24 593.65C1234.24 593.65 1163.77 533.65 1033.89 496.94C904.01 460.23 773.18 479.35 673.54 548.23C605.29 595.42 569.87 648.88 555.26 675.42C549.98 685.01 551.75 696.95 559.55 704.63C567.43 712.39 579.53 713.91 589.07 708.32C617.04 691.92 677.48 659.41 734.6 647.99C812.25 632.46 865.7 655.1 878.25 702.7C892.01 754.94 865.54 805.05 865.54 805.05L865.53 805.06Z" fill="#632D91"/>
</svg>
